<mxfile host="Electron" agent="Mozilla/5.0 (Windows NT 10.0; Win64; x64) AppleWebKit/537.36 (KHTML, like Gecko) draw.io/24.7.17 Chrome/128.0.6613.36 Electron/32.0.1 Safari/537.36" version="24.7.17">
  <diagram id="qep50v249KOPLmkmpgU0" name="Page-1">
    <mxGraphModel dx="3033" dy="1298" grid="1" gridSize="10" guides="1" tooltips="1" connect="1" arrows="1" fold="1" page="1" pageScale="1" pageWidth="827" pageHeight="1169" background="#FFFFFF" math="0" shadow="0">
      <root>
        <mxCell id="0" />
        <mxCell id="1" parent="0" />
        <mxCell id="oeWAff-b8Jvwou2qHs3z-4" value="" style="ellipse;whiteSpace=wrap;html=1;aspect=fixed;fillStyle=hatch;strokeWidth=2;strokeColor=#666666;" parent="1" vertex="1">
          <mxGeometry x="240" y="340" width="240" height="240" as="geometry" />
        </mxCell>
        <mxCell id="YWOoumaxphThRoGGoEPI-2" value="&lt;h3 style=&quot;text-align: justify;&quot;&gt;&lt;font face=&quot;Times New Roman&quot; style=&quot;font-size: 18px;&quot; color=&quot;#000000&quot;&gt;Html&lt;/font&gt;&lt;/h3&gt;" style="shape=note;whiteSpace=wrap;html=1;backgroundOutline=1;darkOpacity=0.05;fillColor=#eeeeee;strokeColor=#36393d;" parent="1" vertex="1">
          <mxGeometry x="285" y="388.75" width="60" height="80" as="geometry" />
        </mxCell>
        <mxCell id="Xvw15uOc4fF2MKiBkmT9-6" value="&lt;h1&gt;&lt;font color=&quot;#000000&quot; style=&quot;font-size: 20px;&quot; face=&quot;Times New Roman&quot;&gt;FASTQC&lt;/font&gt;&lt;/h1&gt;" style="rounded=0;whiteSpace=wrap;html=1;fillColor=#fad7ac;strokeColor=#b46504;strokeWidth=2;" parent="1" vertex="1">
          <mxGeometry x="-60" y="280" width="240" height="40" as="geometry" />
        </mxCell>
        <mxCell id="Xvw15uOc4fF2MKiBkmT9-7" value="&lt;h2&gt;&lt;font color=&quot;#000000&quot; size=&quot;1&quot; face=&quot;Times New Roman&quot;&gt;&lt;i style=&quot;font-weight: normal; font-size: 20px;&quot;&gt;quality control&lt;/i&gt;&lt;/font&gt;&lt;/h2&gt;" style="rounded=0;whiteSpace=wrap;html=1;fillColor=#fad7ac;strokeWidth=2;strokeColor=#b46504;" parent="1" vertex="1">
          <mxGeometry x="-60" y="320" width="240" height="40" as="geometry" />
        </mxCell>
        <mxCell id="Xvw15uOc4fF2MKiBkmT9-8" value="&lt;h1 style=&quot;text-align: justify;&quot;&gt;&lt;font face=&quot;Times New Roman&quot; style=&quot;font-size: 20px;&quot; color=&quot;#000000&quot;&gt;MULTIQC&lt;/font&gt;&lt;/h1&gt;" style="rounded=0;whiteSpace=wrap;html=1;fillColor=#fad7ac;strokeColor=#b46504;strokeWidth=2;" parent="1" vertex="1">
          <mxGeometry x="602" y="280" width="240" height="40" as="geometry" />
        </mxCell>
        <mxCell id="Xvw15uOc4fF2MKiBkmT9-9" value="&lt;h2&gt;&lt;font color=&quot;#000000&quot; size=&quot;1&quot; face=&quot;Times New Roman&quot;&gt;&lt;i style=&quot;font-weight: normal; font-size: 20px;&quot;&gt;quality control&lt;/i&gt;&lt;/font&gt;&lt;/h2&gt;" style="rounded=0;whiteSpace=wrap;html=1;fillColor=#fad7ac;strokeWidth=2;strokeColor=#b46504;" parent="1" vertex="1">
          <mxGeometry x="602" y="320" width="240" height="40" as="geometry" />
        </mxCell>
        <mxCell id="oeWAff-b8Jvwou2qHs3z-1" value="&lt;h3 style=&quot;text-align: justify;&quot;&gt;&lt;font face=&quot;Times New Roman&quot; style=&quot;font-size: 18px;&quot; color=&quot;#000000&quot;&gt;Html&lt;/font&gt;&lt;/h3&gt;" style="shape=note;whiteSpace=wrap;html=1;backgroundOutline=1;darkOpacity=0.05;fillColor=#eeeeee;strokeColor=#36393d;" parent="1" vertex="1">
          <mxGeometry x="355" y="388.75" width="60" height="80" as="geometry" />
        </mxCell>
        <mxCell id="oeWAff-b8Jvwou2qHs3z-2" value="&lt;h3 style=&quot;text-align: justify;&quot;&gt;&lt;font face=&quot;Times New Roman&quot; style=&quot;font-size: 18px;&quot; color=&quot;#000000&quot;&gt;Html&lt;/font&gt;&lt;/h3&gt;" style="shape=note;whiteSpace=wrap;html=1;backgroundOutline=1;darkOpacity=0.05;fillColor=#eeeeee;strokeColor=#36393d;" parent="1" vertex="1">
          <mxGeometry x="305" y="438.75" width="60" height="80" as="geometry" />
        </mxCell>
        <mxCell id="oeWAff-b8Jvwou2qHs3z-3" value="&lt;h3 style=&quot;text-align: justify;&quot;&gt;&lt;font face=&quot;Times New Roman&quot; style=&quot;font-size: 18px;&quot; color=&quot;#000000&quot;&gt;Html&lt;/font&gt;&lt;/h3&gt;" style="shape=note;whiteSpace=wrap;html=1;backgroundOutline=1;darkOpacity=0.05;fillColor=#eeeeee;strokeColor=#36393d;" parent="1" vertex="1">
          <mxGeometry x="375" y="438.75" width="60" height="80" as="geometry" />
        </mxCell>
        <mxCell id="oeWAff-b8Jvwou2qHs3z-5" value="" style="curved=0;endArrow=classic;html=1;rounded=0;strokeColor=#000000;entryX=0;entryY=0;entryDx=0;entryDy=0;exitX=1;exitY=0;exitDx=0;exitDy=0;strokeWidth=2;" parent="1" source="Xvw15uOc4fF2MKiBkmT9-7" target="oeWAff-b8Jvwou2qHs3z-4" edge="1">
          <mxGeometry width="50" height="50" relative="1" as="geometry">
            <mxPoint x="530" y="260" as="sourcePoint" />
            <mxPoint x="500" y="290" as="targetPoint" />
            <Array as="points">
              <mxPoint x="240" y="320" />
            </Array>
          </mxGeometry>
        </mxCell>
        <mxCell id="oeWAff-b8Jvwou2qHs3z-6" value="" style="curved=0;endArrow=classic;html=1;rounded=0;strokeColor=#000000;entryX=0;entryY=0;entryDx=0;entryDy=0;strokeWidth=2;" parent="1" edge="1">
          <mxGeometry width="50" height="50" relative="1" as="geometry">
            <mxPoint x="474" y="509" as="sourcePoint" />
            <mxPoint x="604" y="320" as="targetPoint" />
            <Array as="points">
              <mxPoint x="524" y="509" />
              <mxPoint x="524" y="400" />
            </Array>
          </mxGeometry>
        </mxCell>
        <mxCell id="1ewGCbwGuudk2prlViDB-2" value="" style="endArrow=classic;html=1;rounded=0;strokeWidth=2;strokeColor=#000000;entryX=0;entryY=0;entryDx=0;entryDy=0;" parent="1" target="Xvw15uOc4fF2MKiBkmT9-7" edge="1">
          <mxGeometry width="50" height="50" relative="1" as="geometry">
            <mxPoint x="-170" y="453.75" as="sourcePoint" />
            <mxPoint x="-120" y="403.75" as="targetPoint" />
          </mxGeometry>
        </mxCell>
        <mxCell id="1ewGCbwGuudk2prlViDB-3" value="&lt;h1 style=&quot;text-align: justify;&quot;&gt;&lt;font style=&quot;font-size: 20px;&quot; color=&quot;#000000&quot;&gt;HiSeqÂ® 2500 Sequencing System&amp;nbsp;&lt;/font&gt;&lt;/h1&gt;" style="rounded=0;whiteSpace=wrap;html=1;fillColor=#cdeb8b;strokeColor=#36393d;strokeWidth=2;" parent="1" vertex="1">
          <mxGeometry x="-479" y="170" width="360" height="40" as="geometry" />
        </mxCell>
        <mxCell id="-UzGAc0k_jv51V4Jmrl6-2" style="edgeStyle=orthogonalEdgeStyle;rounded=0;orthogonalLoop=1;jettySize=auto;html=1;exitX=0.5;exitY=1;exitDx=0;exitDy=0;strokeWidth=2;strokeColor=#000000;" parent="1" source="1ewGCbwGuudk2prlViDB-4" edge="1">
          <mxGeometry relative="1" as="geometry">
            <mxPoint x="-299.54545454545496" y="430.0000000000002" as="targetPoint" />
          </mxGeometry>
        </mxCell>
        <mxCell id="1ewGCbwGuudk2prlViDB-4" value="&lt;h2&gt;&lt;br&gt;&lt;/h2&gt;" style="rounded=0;whiteSpace=wrap;html=1;fillColor=#cdeb8b;strokeWidth=2;strokeColor=#36393d;" parent="1" vertex="1">
          <mxGeometry x="-479" y="210" width="360" height="40" as="geometry" />
        </mxCell>
        <mxCell id="1ewGCbwGuudk2prlViDB-7" value="&lt;h3 style=&quot;text-align: justify;&quot;&gt;&lt;font face=&quot;Times New Roman&quot; style=&quot;font-size: 18px;&quot; color=&quot;#000000&quot;&gt;Html&lt;/font&gt;&lt;/h3&gt;" style="shape=note;whiteSpace=wrap;html=1;backgroundOutline=1;darkOpacity=0.05;fillColor=#eeeeee;strokeColor=#36393d;" parent="1" vertex="1">
          <mxGeometry x="960" y="359" width="60" height="80" as="geometry" />
        </mxCell>
        <mxCell id="1ewGCbwGuudk2prlViDB-8" value="" style="curved=0;endArrow=classic;html=1;rounded=0;strokeColor=#000000;strokeWidth=2;entryX=-0.005;entryY=0.623;entryDx=0;entryDy=0;entryPerimeter=0;exitX=1;exitY=0;exitDx=0;exitDy=0;dashed=1;" parent="1" source="Xvw15uOc4fF2MKiBkmT9-9" target="1ewGCbwGuudk2prlViDB-7" edge="1">
          <mxGeometry width="50" height="50" relative="1" as="geometry">
            <mxPoint x="470" y="650" as="sourcePoint" />
            <mxPoint x="520" y="600" as="targetPoint" />
            <Array as="points">
              <mxPoint x="842" y="410" />
              <mxPoint x="900" y="410" />
            </Array>
          </mxGeometry>
        </mxCell>
        <mxCell id="5Fw-QK7vhbXvHkPF0wpB-1" value="" style="endArrow=classic;html=1;rounded=0;strokeWidth=2;strokeColor=#000000;entryX=0.5;entryY=0;entryDx=0;entryDy=0;" parent="1" target="5Fw-QK7vhbXvHkPF0wpB-2" edge="1">
          <mxGeometry width="50" height="50" relative="1" as="geometry">
            <mxPoint x="-320" y="538" as="sourcePoint" />
            <mxPoint x="-326" y="750" as="targetPoint" />
          </mxGeometry>
        </mxCell>
        <mxCell id="5Fw-QK7vhbXvHkPF0wpB-2" value="&lt;h1 style=&quot;font-size: 20px;&quot;&gt;&lt;font face=&quot;Times New Roman&quot; color=&quot;#000000&quot;&gt;BWAMEM2&amp;nbsp; MEM&lt;/font&gt;&lt;/h1&gt;" style="rounded=0;whiteSpace=wrap;html=1;fillColor=#dae8fc;strokeColor=#6c8ebf;strokeWidth=2;" parent="1" vertex="1">
          <mxGeometry x="-480" y="760" width="320" height="40" as="geometry" />
        </mxCell>
        <mxCell id="5Fw-QK7vhbXvHkPF0wpB-3" value="&lt;h2&gt;&lt;font color=&quot;#000000&quot; size=&quot;1&quot; face=&quot;Times New Roman&quot;&gt;&lt;i style=&quot;font-weight: normal; font-size: 20px;&quot;&gt;mapping&lt;/i&gt;&lt;/font&gt;&lt;/h2&gt;" style="rounded=0;whiteSpace=wrap;html=1;fillColor=#dae8fc;strokeWidth=2;strokeColor=#6c8ebf;" parent="1" vertex="1">
          <mxGeometry x="-480" y="800" width="320" height="40" as="geometry" />
        </mxCell>
        <mxCell id="FLk3fT77dZ5S2mJOA_PC-1" value="&lt;h1 style=&quot;font-size: 20px;&quot;&gt;&lt;font face=&quot;Times New Roman&quot; color=&quot;#000000&quot;&gt;BWAMEM2&amp;nbsp; INDEX&lt;/font&gt;&lt;/h1&gt;" style="rounded=0;whiteSpace=wrap;html=1;fillColor=#dae8fc;strokeColor=#6c8ebf;strokeWidth=2;" parent="1" vertex="1">
          <mxGeometry x="-160" y="640" width="320" height="40" as="geometry" />
        </mxCell>
        <mxCell id="FLk3fT77dZ5S2mJOA_PC-10" style="edgeStyle=orthogonalEdgeStyle;rounded=0;orthogonalLoop=1;jettySize=auto;html=1;exitX=0.5;exitY=1;exitDx=0;exitDy=0;strokeWidth=2;strokeColor=#000000;startArrow=none;startFill=0;endArrow=classic;endFill=1;" parent="1" edge="1">
          <mxGeometry relative="1" as="geometry">
            <mxPoint x="-300" y="760" as="targetPoint" />
            <mxPoint x="-300" y="680" as="sourcePoint" />
          </mxGeometry>
        </mxCell>
        <mxCell id="FLk3fT77dZ5S2mJOA_PC-2" value="&lt;h2&gt;&lt;font color=&quot;#000000&quot; size=&quot;1&quot; face=&quot;Times New Roman&quot;&gt;&lt;i style=&quot;font-weight: normal; font-size: 20px;&quot;&gt;reference indexation&lt;/i&gt;&lt;/font&gt;&lt;/h2&gt;" style="rounded=0;whiteSpace=wrap;html=1;fillColor=#dae8fc;strokeWidth=2;strokeColor=#6c8ebf;" parent="1" vertex="1">
          <mxGeometry x="-160" y="680" width="320" height="40" as="geometry" />
        </mxCell>
        <mxCell id="FLk3fT77dZ5S2mJOA_PC-3" value="" style="group;fontColor=#000000;" parent="1" vertex="1" connectable="0">
          <mxGeometry x="400" y="640" width="159" height="95" as="geometry" />
        </mxCell>
        <mxCell id="FLk3fT77dZ5S2mJOA_PC-6" value="&lt;h4 style=&quot;text-align: justify;&quot;&gt;&lt;font style=&quot;font-size: 22px;&quot; face=&quot;Times New Roman&quot;&gt;reference.fasta&lt;/font&gt;&lt;/h4&gt;" style="shape=document;whiteSpace=wrap;html=1;boundedLbl=1;fillColor=#FF4912;strokeColor=#b85450;gradientColor=#ea6b66;" parent="FLk3fT77dZ5S2mJOA_PC-3" vertex="1">
          <mxGeometry y="15" width="141.5753424657534" height="60" as="geometry" />
        </mxCell>
        <mxCell id="FLk3fT77dZ5S2mJOA_PC-9" style="edgeStyle=orthogonalEdgeStyle;rounded=0;orthogonalLoop=1;jettySize=auto;html=1;exitX=0;exitY=0.5;exitDx=0;exitDy=0;strokeColor=#000000;strokeWidth=2;entryX=1;entryY=0.125;entryDx=0;entryDy=0;entryPerimeter=0;" parent="1" source="FLk3fT77dZ5S2mJOA_PC-6" target="FLk3fT77dZ5S2mJOA_PC-2" edge="1">
          <mxGeometry relative="1" as="geometry">
            <mxPoint x="170" y="685" as="targetPoint" />
          </mxGeometry>
        </mxCell>
        <mxCell id="FLk3fT77dZ5S2mJOA_PC-11" value="" style="endArrow=none;html=1;rounded=0;strokeWidth=2;strokeColor=#000000;endFill=0;" parent="1" edge="1">
          <mxGeometry width="50" height="50" relative="1" as="geometry">
            <mxPoint x="-160" y="678.46" as="sourcePoint" />
            <mxPoint x="-300" y="680" as="targetPoint" />
          </mxGeometry>
        </mxCell>
        <mxCell id="QmaJM7CqruB4dXSMCWwG-1" value="&lt;h1 style=&quot;font-size: 20px;&quot;&gt;&lt;font face=&quot;Times New Roman&quot; color=&quot;#000000&quot;&gt;SAMTOOLS VIEW&lt;/font&gt;&lt;/h1&gt;" style="rounded=0;whiteSpace=wrap;html=1;fillColor=#dae8fc;strokeColor=#6c8ebf;strokeWidth=2;" parent="1" vertex="1">
          <mxGeometry x="-480" y="920" width="320" height="40" as="geometry" />
        </mxCell>
        <mxCell id="QmaJM7CqruB4dXSMCWwG-2" value="&lt;h1&gt;&lt;font color=&quot;#000000&quot; face=&quot;Times New Roman&quot; style=&quot;font-size: 20px;&quot;&gt;&lt;i style=&quot;font-weight: normal;&quot;&gt;sam to bam&lt;/i&gt;&lt;/font&gt;&lt;/h1&gt;" style="rounded=0;whiteSpace=wrap;html=1;fillColor=#dae8fc;strokeWidth=2;strokeColor=#6c8ebf;" parent="1" vertex="1">
          <mxGeometry x="-480" y="960" width="320" height="40" as="geometry" />
        </mxCell>
        <mxCell id="QmaJM7CqruB4dXSMCWwG-3" value="&lt;h1 style=&quot;font-size: 20px;&quot;&gt;&lt;font face=&quot;Times New Roman&quot; color=&quot;#000000&quot;&gt;SAMTOOLS FLAGSTATS&lt;/font&gt;&lt;/h1&gt;" style="rounded=0;whiteSpace=wrap;html=1;fillColor=#dae8fc;strokeColor=#6c8ebf;strokeWidth=2;" parent="1" vertex="1">
          <mxGeometry x="240" y="920" width="320" height="40" as="geometry" />
        </mxCell>
        <mxCell id="QmaJM7CqruB4dXSMCWwG-4" value="&lt;h2 style=&quot;font-size: 20px;&quot;&gt;&lt;font face=&quot;Times New Roman&quot; color=&quot;#000000&quot;&gt;&lt;i style=&quot;font-weight: normal;&quot;&gt;stats mapping&lt;/i&gt;&lt;/font&gt;&lt;/h2&gt;" style="rounded=0;whiteSpace=wrap;html=1;fillColor=#dae8fc;strokeWidth=2;strokeColor=#6c8ebf;" parent="1" vertex="1">
          <mxGeometry x="240" y="960" width="320" height="40" as="geometry" />
        </mxCell>
        <mxCell id="QmaJM7CqruB4dXSMCWwG-5" value="&lt;h1 style=&quot;font-size: 20px;&quot;&gt;&lt;font face=&quot;Times New Roman&quot; color=&quot;#000000&quot;&gt;SAMTOOLS SORT&lt;/font&gt;&lt;/h1&gt;" style="rounded=0;whiteSpace=wrap;html=1;fillColor=#dae8fc;strokeColor=#6c8ebf;strokeWidth=2;" parent="1" vertex="1">
          <mxGeometry x="240" y="1080" width="320" height="40" as="geometry" />
        </mxCell>
        <mxCell id="QmaJM7CqruB4dXSMCWwG-6" value="&lt;h2 style=&quot;font-size: 20px;&quot;&gt;&lt;font style=&quot;font-weight: normal;&quot; face=&quot;Times New Roman&quot; color=&quot;#000000&quot;&gt;&lt;i&gt;sorting mapping&lt;/i&gt;&lt;/font&gt;&lt;/h2&gt;" style="rounded=0;whiteSpace=wrap;html=1;fillColor=#dae8fc;strokeWidth=2;strokeColor=#6c8ebf;" parent="1" vertex="1">
          <mxGeometry x="240" y="1120" width="320" height="40" as="geometry" />
        </mxCell>
        <mxCell id="hLmoXOM9yDVaJokilTyk-5" style="edgeStyle=orthogonalEdgeStyle;rounded=0;orthogonalLoop=1;jettySize=auto;html=1;exitX=0;exitY=1;exitDx=0;exitDy=0;entryX=0;entryY=0.5;entryDx=0;entryDy=0;strokeColor=#000000;strokeWidth=2;dashed=1;" parent="1" source="QmaJM7CqruB4dXSMCWwG-7" target="iOj30GyTpF55z50Ukdo1-19" edge="1">
          <mxGeometry relative="1" as="geometry" />
        </mxCell>
        <mxCell id="QmaJM7CqruB4dXSMCWwG-7" value="&lt;h1 style=&quot;font-size: 20px;&quot;&gt;&lt;font face=&quot;Times New Roman&quot; color=&quot;#000000&quot;&gt;SAMTOOLS VIEW -F3&lt;/font&gt;&lt;/h1&gt;" style="rounded=0;whiteSpace=wrap;html=1;fillColor=#dae8fc;strokeColor=#6c8ebf;strokeWidth=2;" parent="1" vertex="1">
          <mxGeometry x="-480" y="1080" width="320" height="40" as="geometry" />
        </mxCell>
        <mxCell id="QmaJM7CqruB4dXSMCWwG-8" value="&lt;h2 style=&quot;font-size: 20px;&quot;&gt;&lt;font face=&quot;Times New Roman&quot; style=&quot;font-weight: normal;&quot; color=&quot;#000000&quot;&gt;&lt;i&gt;filter mapping&lt;/i&gt;&lt;/font&gt;&lt;/h2&gt;" style="rounded=0;whiteSpace=wrap;html=1;fillColor=#dae8fc;strokeWidth=2;strokeColor=#6c8ebf;" parent="1" vertex="1">
          <mxGeometry x="-480" y="1120" width="320" height="40" as="geometry" />
        </mxCell>
        <mxCell id="iOj30GyTpF55z50Ukdo1-1" value="" style="group;fontColor=#000000;strokeWidth=2;" parent="1" vertex="1" connectable="0">
          <mxGeometry x="-13" y="920" width="146" height="75" as="geometry" />
        </mxCell>
        <mxCell id="iOj30GyTpF55z50Ukdo1-4" value="&lt;font face=&quot;Times New Roman&quot; style=&quot;font-size: 20px;&quot;&gt;&lt;b&gt;.bam&lt;/b&gt;&lt;/font&gt;" style="shape=document;whiteSpace=wrap;html=1;boundedLbl=1;fillColor=#f5f5f5;fontColor=#000000;strokeColor=#666666;strokeWidth=2;" parent="iOj30GyTpF55z50Ukdo1-1" vertex="1">
          <mxGeometry y="16" width="130" height="60" as="geometry" />
        </mxCell>
        <mxCell id="iOj30GyTpF55z50Ukdo1-7" value="" style="endArrow=classic;html=1;rounded=0;strokeWidth=2;strokeColor=#000000;exitX=1;exitY=0;exitDx=0;exitDy=0;entryX=0.01;entryY=0.389;entryDx=0;entryDy=0;entryPerimeter=0;dashed=1;" parent="1" source="QmaJM7CqruB4dXSMCWwG-2" target="iOj30GyTpF55z50Ukdo1-4" edge="1">
          <mxGeometry width="50" height="50" relative="1" as="geometry">
            <mxPoint y="930" as="sourcePoint" />
            <mxPoint x="-20" y="960" as="targetPoint" />
          </mxGeometry>
        </mxCell>
        <mxCell id="iOj30GyTpF55z50Ukdo1-8" value="" style="endArrow=none;html=1;rounded=0;strokeWidth=2;strokeColor=#000000;exitX=1;exitY=0;exitDx=0;exitDy=0;endFill=0;" parent="1" edge="1">
          <mxGeometry width="50" height="50" relative="1" as="geometry">
            <mxPoint x="60" y="880" as="sourcePoint" />
            <mxPoint x="400" y="880" as="targetPoint" />
          </mxGeometry>
        </mxCell>
        <mxCell id="iOj30GyTpF55z50Ukdo1-9" value="" style="group;fontColor=#000000;strokeWidth=2;" parent="1" vertex="1" connectable="0">
          <mxGeometry x="602" y="1000" width="146" height="75" as="geometry" />
        </mxCell>
        <mxCell id="iOj30GyTpF55z50Ukdo1-10" value="&lt;font face=&quot;Times New Roman&quot; style=&quot;font-size: 20px;&quot;&gt;&lt;b&gt;sorted stats.txt&lt;/b&gt;&lt;/font&gt;" style="shape=document;whiteSpace=wrap;html=1;boundedLbl=1;fillColor=#f5f5f5;fontColor=#000000;strokeColor=#666666;strokeWidth=2;" parent="iOj30GyTpF55z50Ukdo1-9" vertex="1">
          <mxGeometry y="15" width="130" height="60" as="geometry" />
        </mxCell>
        <mxCell id="iOj30GyTpF55z50Ukdo1-11" value="" style="group;fontColor=#000000;strokeWidth=2;" parent="1" vertex="1" connectable="0">
          <mxGeometry x="-13" y="1085" width="146" height="75" as="geometry" />
        </mxCell>
        <mxCell id="iOj30GyTpF55z50Ukdo1-12" value="&lt;font face=&quot;Times New Roman&quot; style=&quot;font-size: 20px;&quot;&gt;&lt;b&gt;.sorted.bam&lt;/b&gt;&lt;/font&gt;" style="shape=document;whiteSpace=wrap;html=1;boundedLbl=1;fillColor=#f5f5f5;fontColor=#000000;strokeColor=#666666;strokeWidth=2;" parent="iOj30GyTpF55z50Ukdo1-11" vertex="1">
          <mxGeometry y="15" width="130" height="60" as="geometry" />
        </mxCell>
        <mxCell id="iOj30GyTpF55z50Ukdo1-13" value="" style="endArrow=none;html=1;rounded=0;strokeColor=#000000;strokeWidth=2;exitX=1;exitY=1;exitDx=0;exitDy=0;dashed=1;" parent="1" source="QmaJM7CqruB4dXSMCWwG-3" edge="1">
          <mxGeometry width="50" height="50" relative="1" as="geometry">
            <mxPoint y="930" as="sourcePoint" />
            <mxPoint x="680" y="960" as="targetPoint" />
          </mxGeometry>
        </mxCell>
        <mxCell id="iOj30GyTpF55z50Ukdo1-14" value="" style="endArrow=classic;html=1;rounded=0;strokeColor=#000000;strokeWidth=2;entryX=0.592;entryY=0.017;entryDx=0;entryDy=0;entryPerimeter=0;dashed=1;" parent="1" target="iOj30GyTpF55z50Ukdo1-10" edge="1">
          <mxGeometry width="50" height="50" relative="1" as="geometry">
            <mxPoint x="679" y="960" as="sourcePoint" />
            <mxPoint x="50" y="880" as="targetPoint" />
          </mxGeometry>
        </mxCell>
        <mxCell id="iOj30GyTpF55z50Ukdo1-17" value="" style="endArrow=none;html=1;rounded=0;strokeColor=#000000;strokeWidth=2;exitX=1;exitY=1;exitDx=0;exitDy=0;startArrow=classic;startFill=1;dashed=1;" parent="1" edge="1">
          <mxGeometry width="50" height="50" relative="1" as="geometry">
            <mxPoint x="120" y="1120" as="sourcePoint" />
            <mxPoint x="240" y="1120" as="targetPoint" />
          </mxGeometry>
        </mxCell>
        <mxCell id="iOj30GyTpF55z50Ukdo1-18" value="" style="endArrow=none;html=1;rounded=0;strokeColor=#000000;strokeWidth=2;exitX=1;exitY=1;exitDx=0;exitDy=0;startArrow=classic;startFill=1;entryX=-0.008;entryY=0.384;entryDx=0;entryDy=0;entryPerimeter=0;" parent="1" edge="1">
          <mxGeometry width="50" height="50" relative="1" as="geometry">
            <mxPoint x="-160" y="1118.9099999999999" as="sourcePoint" />
            <mxPoint x="-14.039999999999964" y="1120.0400000000004" as="targetPoint" />
          </mxGeometry>
        </mxCell>
        <mxCell id="Ogi6Ucge1ZqUT0kKit91-3" style="edgeStyle=orthogonalEdgeStyle;rounded=0;orthogonalLoop=1;jettySize=auto;html=1;exitX=1;exitY=0.5;exitDx=0;exitDy=0;entryX=0.5;entryY=0;entryDx=0;entryDy=0;strokeColor=#000000;strokeWidth=2;" parent="1" source="iOj30GyTpF55z50Ukdo1-19" target="Ogi6Ucge1ZqUT0kKit91-1" edge="1">
          <mxGeometry relative="1" as="geometry" />
        </mxCell>
        <mxCell id="iOj30GyTpF55z50Ukdo1-19" value="&lt;font face=&quot;Times New Roman&quot; style=&quot;font-size: 20px;&quot;&gt;&lt;b&gt;.sorted.mapped&lt;/b&gt;&lt;/font&gt;&lt;div&gt;&lt;font face=&quot;Times New Roman&quot; style=&quot;font-size: 20px;&quot;&gt;&lt;b&gt;.bam&lt;/b&gt;&lt;/font&gt;&lt;/div&gt;" style="shape=document;whiteSpace=wrap;html=1;boundedLbl=1;fillColor=#f5f5f5;fontColor=#000000;strokeColor=#666666;strokeWidth=2;" parent="1" vertex="1">
          <mxGeometry x="-520" y="1200" width="130" height="60" as="geometry" />
        </mxCell>
        <mxCell id="o_VqLOXlfi4cEBrLwyER-1" value="" style="group;fontColor=#000000;strokeWidth=2;" parent="1" vertex="1" connectable="0">
          <mxGeometry x="-21" y="760" width="146" height="75" as="geometry" />
        </mxCell>
        <mxCell id="o_VqLOXlfi4cEBrLwyER-2" value="&lt;font face=&quot;Times New Roman&quot; style=&quot;font-size: 20px;&quot;&gt;&lt;b&gt;.sam&lt;/b&gt;&lt;/font&gt;" style="shape=document;whiteSpace=wrap;html=1;boundedLbl=1;fillColor=#f5f5f5;fontColor=#000000;strokeColor=#666666;strokeWidth=2;" parent="o_VqLOXlfi4cEBrLwyER-1" vertex="1">
          <mxGeometry y="15" width="130" height="60" as="geometry" />
        </mxCell>
        <mxCell id="o_VqLOXlfi4cEBrLwyER-3" style="edgeStyle=orthogonalEdgeStyle;rounded=0;orthogonalLoop=1;jettySize=auto;html=1;strokeColor=#000000;strokeWidth=2;startArrow=classic;startFill=1;endArrow=none;endFill=0;dashed=1;" parent="1" edge="1">
          <mxGeometry relative="1" as="geometry">
            <mxPoint x="-161" y="800" as="targetPoint" />
            <mxPoint x="-20" y="800" as="sourcePoint" />
          </mxGeometry>
        </mxCell>
        <mxCell id="Wm1Pebcl5L7raXYJylPu-2" style="edgeStyle=orthogonalEdgeStyle;rounded=0;orthogonalLoop=1;jettySize=auto;html=1;strokeWidth=2;strokeColor=#000000;startArrow=none;startFill=0;endArrow=none;endFill=0;" parent="1" edge="1">
          <mxGeometry relative="1" as="geometry">
            <mxPoint x="62" y="940" as="targetPoint" />
            <mxPoint x="62" y="880" as="sourcePoint" />
          </mxGeometry>
        </mxCell>
        <mxCell id="Wm1Pebcl5L7raXYJylPu-3" style="edgeStyle=orthogonalEdgeStyle;rounded=0;orthogonalLoop=1;jettySize=auto;html=1;strokeWidth=2;strokeColor=#000000;startArrow=none;startFill=0;endArrow=classic;endFill=1;" parent="1" edge="1">
          <mxGeometry relative="1" as="geometry">
            <mxPoint x="399.23" y="920" as="targetPoint" />
            <mxPoint x="399" y="880" as="sourcePoint" />
          </mxGeometry>
        </mxCell>
        <mxCell id="hLmoXOM9yDVaJokilTyk-1" value="" style="endArrow=none;html=1;rounded=0;strokeWidth=2;strokeColor=#000000;exitX=1;exitY=0;exitDx=0;exitDy=0;endFill=0;" parent="1" edge="1">
          <mxGeometry width="50" height="50" relative="1" as="geometry">
            <mxPoint x="60" y="1050" as="sourcePoint" />
            <mxPoint x="400" y="1050" as="targetPoint" />
          </mxGeometry>
        </mxCell>
        <mxCell id="hLmoXOM9yDVaJokilTyk-2" style="edgeStyle=orthogonalEdgeStyle;rounded=0;orthogonalLoop=1;jettySize=auto;html=1;strokeWidth=2;strokeColor=#000000;startArrow=none;startFill=0;endArrow=none;endFill=0;" parent="1" edge="1">
          <mxGeometry relative="1" as="geometry">
            <mxPoint x="59.230000000000004" y="1050" as="targetPoint" />
            <mxPoint x="59.230000000000004" y="990" as="sourcePoint" />
          </mxGeometry>
        </mxCell>
        <mxCell id="hLmoXOM9yDVaJokilTyk-3" style="edgeStyle=orthogonalEdgeStyle;rounded=0;orthogonalLoop=1;jettySize=auto;html=1;strokeWidth=2;strokeColor=#000000;startArrow=none;startFill=0;endArrow=classic;endFill=1;" parent="1" edge="1">
          <mxGeometry relative="1" as="geometry">
            <mxPoint x="399.46000000000004" y="1080" as="targetPoint" />
            <mxPoint x="400" y="1050" as="sourcePoint" />
            <Array as="points">
              <mxPoint x="399" y="1060" />
              <mxPoint x="399" y="1060" />
            </Array>
          </mxGeometry>
        </mxCell>
        <mxCell id="hLmoXOM9yDVaJokilTyk-4" style="edgeStyle=orthogonalEdgeStyle;rounded=0;orthogonalLoop=1;jettySize=auto;html=1;exitX=0;exitY=0.75;exitDx=0;exitDy=0;entryX=1;entryY=0.25;entryDx=0;entryDy=0;strokeColor=#000000;strokeWidth=2;" parent="1" source="o_VqLOXlfi4cEBrLwyER-2" target="QmaJM7CqruB4dXSMCWwG-1" edge="1">
          <mxGeometry relative="1" as="geometry" />
        </mxCell>
        <mxCell id="Ogi6Ucge1ZqUT0kKit91-1" value="&lt;h1 style=&quot;font-size: 20px;&quot;&gt;&lt;font face=&quot;Times New Roman&quot; color=&quot;#000000&quot;&gt;BCFTOOLS mpileup&lt;/font&gt;&lt;/h1&gt;" style="rounded=0;whiteSpace=wrap;html=1;fillColor=#e6d0de;strokeColor=#996185;strokeWidth=2;gradientColor=#d5739d;" parent="1" vertex="1">
          <mxGeometry x="-479" y="1321" width="320" height="40" as="geometry" />
        </mxCell>
        <mxCell id="Ogi6Ucge1ZqUT0kKit91-10" style="edgeStyle=orthogonalEdgeStyle;rounded=0;orthogonalLoop=1;jettySize=auto;html=1;exitX=1;exitY=0.5;exitDx=0;exitDy=0;strokeWidth=2;strokeColor=#000000;dashed=1;" parent="1" source="Ogi6Ucge1ZqUT0kKit91-2" edge="1">
          <mxGeometry relative="1" as="geometry">
            <mxPoint x="-30" y="1380" as="targetPoint" />
          </mxGeometry>
        </mxCell>
        <mxCell id="Ogi6Ucge1ZqUT0kKit91-2" value="&lt;h2 style=&quot;font-size: 20px;&quot;&gt;&lt;br&gt;&lt;/h2&gt;" style="rounded=0;whiteSpace=wrap;html=1;fillColor=#e6d0de;strokeWidth=2;strokeColor=#996185;gradientColor=#d5739d;" parent="1" vertex="1">
          <mxGeometry x="-479" y="1361" width="320" height="40" as="geometry" />
        </mxCell>
        <mxCell id="Ogi6Ucge1ZqUT0kKit91-4" value="&lt;h1 style=&quot;font-size: 20px;&quot;&gt;&lt;font face=&quot;Times New Roman&quot; color=&quot;#000000&quot;&gt;BCFTOOLS call&lt;/font&gt;&lt;/h1&gt;" style="rounded=0;whiteSpace=wrap;html=1;fillColor=#e6d0de;strokeColor=#996185;strokeWidth=2;gradientColor=#d5739d;" parent="1" vertex="1">
          <mxGeometry x="239" y="1321" width="320" height="40" as="geometry" />
        </mxCell>
        <mxCell id="Ogi6Ucge1ZqUT0kKit91-5" value="&lt;h2 style=&quot;font-size: 20px;&quot;&gt;&lt;font face=&quot;Times New Roman&quot; style=&quot;font-weight: normal;&quot; color=&quot;#000000&quot;&gt;&lt;i&gt;snp calling&lt;/i&gt;&lt;/font&gt;&lt;/h2&gt;" style="rounded=0;whiteSpace=wrap;html=1;fillColor=#e6d0de;strokeWidth=2;strokeColor=#996185;gradientColor=#d5739d;" parent="1" vertex="1">
          <mxGeometry x="239" y="1361" width="320" height="40" as="geometry" />
        </mxCell>
        <mxCell id="Ogi6Ucge1ZqUT0kKit91-21" style="edgeStyle=orthogonalEdgeStyle;rounded=0;orthogonalLoop=1;jettySize=auto;html=1;entryX=1;entryY=0.5;entryDx=0;entryDy=0;strokeWidth=2;strokeColor=#000000;dashed=1;" parent="1" target="Ogi6Ucge1ZqUT0kKit91-16" edge="1">
          <mxGeometry relative="1" as="geometry">
            <mxPoint x="-120" y="1600" as="sourcePoint" />
          </mxGeometry>
        </mxCell>
        <mxCell id="Ogi6Ucge1ZqUT0kKit91-6" value="&lt;h1 style=&quot;font-size: 20px;&quot;&gt;&lt;font face=&quot;Times New Roman&quot; color=&quot;#000000&quot;&gt;BCFTOOLS stats&lt;/font&gt;&lt;/h1&gt;" style="rounded=0;whiteSpace=wrap;html=1;fillColor=#e6d0de;strokeColor=#996185;strokeWidth=2;gradientColor=#d5739d;" parent="1" vertex="1">
          <mxGeometry x="-120" y="1560" width="320" height="40" as="geometry" />
        </mxCell>
        <mxCell id="Ogi6Ucge1ZqUT0kKit91-7" value="&lt;h2 style=&quot;font-size: 20px;&quot;&gt;&lt;font face=&quot;Times New Roman&quot; style=&quot;font-weight: normal;&quot; color=&quot;#000000&quot;&gt;&lt;i&gt;snp calling&lt;/i&gt;&lt;/font&gt;&lt;/h2&gt;" style="rounded=0;whiteSpace=wrap;html=1;fillColor=#e6d0de;strokeWidth=2;strokeColor=#996185;gradientColor=#d5739d;" parent="1" vertex="1">
          <mxGeometry x="-120" y="1600" width="320" height="40" as="geometry" />
        </mxCell>
        <mxCell id="Ogi6Ucge1ZqUT0kKit91-11" style="edgeStyle=orthogonalEdgeStyle;rounded=0;orthogonalLoop=1;jettySize=auto;html=1;exitX=1;exitY=0.5;exitDx=0;exitDy=0;entryX=0;entryY=0.75;entryDx=0;entryDy=0;strokeWidth=2;strokeColor=#000000;" parent="1" edge="1">
          <mxGeometry relative="1" as="geometry">
            <mxPoint x="102" y="1385" as="sourcePoint" />
            <mxPoint x="239" y="1385" as="targetPoint" />
          </mxGeometry>
        </mxCell>
        <mxCell id="Ogi6Ucge1ZqUT0kKit91-8" value="&lt;font face=&quot;Times New Roman&quot;&gt;&lt;span style=&quot;font-size: 20px;&quot;&gt;&lt;b&gt;bcf&lt;/b&gt;&lt;/span&gt;&lt;/font&gt;" style="shape=document;whiteSpace=wrap;html=1;boundedLbl=1;fillColor=#f5f5f5;fontColor=#000000;strokeColor=#666666;strokeWidth=2;" parent="1" vertex="1">
          <mxGeometry x="-28" y="1361" width="130" height="60" as="geometry" />
        </mxCell>
        <mxCell id="fSPcChuM5635GCeT5FFo-10" style="edgeStyle=orthogonalEdgeStyle;rounded=0;orthogonalLoop=1;jettySize=auto;html=1;exitX=0;exitY=0.5;exitDx=0;exitDy=0;entryX=1;entryY=0;entryDx=0;entryDy=0;" edge="1" parent="1" target="Ogi6Ucge1ZqUT0kKit91-7">
          <mxGeometry relative="1" as="geometry">
            <mxPoint x="700" y="1520" as="sourcePoint" />
          </mxGeometry>
        </mxCell>
        <mxCell id="Ogi6Ucge1ZqUT0kKit91-13" style="edgeStyle=orthogonalEdgeStyle;rounded=0;orthogonalLoop=1;jettySize=auto;html=1;exitX=1;exitY=0;exitDx=0;exitDy=0;entryX=0.595;entryY=0.028;entryDx=0;entryDy=0;entryPerimeter=0;strokeWidth=2;strokeColor=#000000;dashed=1;" parent="1" source="Ogi6Ucge1ZqUT0kKit91-5" edge="1">
          <mxGeometry relative="1" as="geometry">
            <mxPoint x="777.3500000000004" y="1491.6799999999998" as="targetPoint" />
          </mxGeometry>
        </mxCell>
        <mxCell id="Ogi6Ucge1ZqUT0kKit91-16" value="&lt;font face=&quot;Times New Roman&quot;&gt;&lt;span style=&quot;font-size: 20px;&quot;&gt;&lt;b&gt;.txt&lt;/b&gt;&lt;/span&gt;&lt;/font&gt;" style="shape=document;whiteSpace=wrap;html=1;boundedLbl=1;fillColor=#f5f5f5;fontColor=#000000;strokeColor=#666666;strokeWidth=2;" parent="1" vertex="1">
          <mxGeometry x="-410" y="1570" width="130" height="60" as="geometry" />
        </mxCell>
        <mxCell id="fSPcChuM5635GCeT5FFo-1" value="&lt;h1 style=&quot;font-size: 20px;&quot;&gt;&lt;font face=&quot;Times New Roman&quot;&gt;R Studio&lt;/font&gt;&lt;/h1&gt;" style="rounded=0;whiteSpace=wrap;html=1;fillColor=#bac8d3;strokeColor=#23445d;strokeWidth=2;" vertex="1" parent="1">
          <mxGeometry x="827" y="1680" width="320" height="40" as="geometry" />
        </mxCell>
        <mxCell id="fSPcChuM5635GCeT5FFo-17" style="edgeStyle=orthogonalEdgeStyle;rounded=0;orthogonalLoop=1;jettySize=auto;html=1;exitX=0;exitY=0;exitDx=0;exitDy=0;endArrow=none;endFill=0;startArrow=classic;startFill=1;strokeWidth=2;" edge="1" parent="1" source="fSPcChuM5635GCeT5FFo-2">
          <mxGeometry relative="1" as="geometry">
            <mxPoint x="780" y="1720" as="targetPoint" />
          </mxGeometry>
        </mxCell>
        <mxCell id="fSPcChuM5635GCeT5FFo-2" value="&lt;h2 style=&quot;font-size: 20px;&quot;&gt;&lt;font face=&quot;Times New Roman&quot; style=&quot;font-weight: normal;&quot; color=&quot;#000000&quot;&gt;&lt;i&gt;Principal Component Analysis&lt;/i&gt;&lt;/font&gt;&lt;/h2&gt;" style="rounded=0;whiteSpace=wrap;html=1;fillColor=#bac8d3;strokeWidth=2;strokeColor=#23445d;" vertex="1" parent="1">
          <mxGeometry x="827" y="1720" width="320" height="40" as="geometry" />
        </mxCell>
        <mxCell id="fSPcChuM5635GCeT5FFo-3" value="&lt;h1 style=&quot;font-size: 20px;&quot;&gt;&lt;font face=&quot;Times New Roman&quot;&gt;R Studio&lt;/font&gt;&lt;/h1&gt;" style="rounded=0;whiteSpace=wrap;html=1;fillColor=#bac8d3;strokeColor=#23445d;strokeWidth=2;" vertex="1" parent="1">
          <mxGeometry x="400" y="1680" width="320" height="40" as="geometry" />
        </mxCell>
        <mxCell id="fSPcChuM5635GCeT5FFo-18" style="edgeStyle=orthogonalEdgeStyle;rounded=0;orthogonalLoop=1;jettySize=auto;html=1;exitX=1;exitY=0.75;exitDx=0;exitDy=0;strokeWidth=2;startArrow=block;startFill=1;endArrow=none;endFill=0;" edge="1" parent="1" source="fSPcChuM5635GCeT5FFo-4">
          <mxGeometry relative="1" as="geometry">
            <mxPoint x="770" y="1730" as="targetPoint" />
          </mxGeometry>
        </mxCell>
        <mxCell id="fSPcChuM5635GCeT5FFo-4" value="&lt;h2 style=&quot;font-size: 20px;&quot;&gt;&lt;font face=&quot;Times New Roman&quot; style=&quot;font-weight: normal;&quot; color=&quot;#000000&quot;&gt;&lt;i&gt;Calcul des indices de diversitÃ©&lt;/i&gt;&lt;/font&gt;&lt;/h2&gt;" style="rounded=0;whiteSpace=wrap;html=1;fillColor=#bac8d3;strokeWidth=2;strokeColor=#23445d;" vertex="1" parent="1">
          <mxGeometry x="400" y="1720" width="320" height="40" as="geometry" />
        </mxCell>
        <mxCell id="fSPcChuM5635GCeT5FFo-5" value="&lt;h1 style=&quot;font-size: 20px;&quot;&gt;&lt;font face=&quot;Times New Roman&quot;&gt;ADMIXTURE&lt;/font&gt;&lt;/h1&gt;" style="rounded=0;whiteSpace=wrap;html=1;fillColor=#bac8d3;strokeColor=#23445d;strokeWidth=2;" vertex="1" parent="1">
          <mxGeometry x="400" y="1880" width="320" height="40" as="geometry" />
        </mxCell>
        <mxCell id="fSPcChuM5635GCeT5FFo-20" style="edgeStyle=orthogonalEdgeStyle;rounded=0;orthogonalLoop=1;jettySize=auto;html=1;exitX=1;exitY=1;exitDx=0;exitDy=0;endArrow=none;endFill=0;startArrow=classic;startFill=1;strokeWidth=2;" edge="1" parent="1" source="fSPcChuM5635GCeT5FFo-6">
          <mxGeometry relative="1" as="geometry">
            <mxPoint x="770" y="1940" as="targetPoint" />
          </mxGeometry>
        </mxCell>
        <mxCell id="fSPcChuM5635GCeT5FFo-6" value="&lt;h2 style=&quot;font-size: 20px;&quot;&gt;&lt;font face=&quot;Times New Roman&quot; style=&quot;font-weight: normal;&quot; color=&quot;#000000&quot;&gt;&lt;i&gt;Structure de la Population&lt;/i&gt;&lt;/font&gt;&lt;/h2&gt;" style="rounded=0;whiteSpace=wrap;html=1;fillColor=#bac8d3;strokeWidth=2;strokeColor=#23445d;" vertex="1" parent="1">
          <mxGeometry x="400" y="1920" width="320" height="40" as="geometry" />
        </mxCell>
        <mxCell id="fSPcChuM5635GCeT5FFo-19" style="edgeStyle=orthogonalEdgeStyle;rounded=0;orthogonalLoop=1;jettySize=auto;html=1;exitX=0;exitY=0.25;exitDx=0;exitDy=0;endArrow=none;endFill=0;startArrow=classic;startFill=1;strokeWidth=2;" edge="1" parent="1" source="fSPcChuM5635GCeT5FFo-8">
          <mxGeometry relative="1" as="geometry">
            <mxPoint x="770" y="1910" as="targetPoint" />
          </mxGeometry>
        </mxCell>
        <mxCell id="fSPcChuM5635GCeT5FFo-8" value="&lt;h1 style=&quot;font-size: 20px;&quot;&gt;&lt;font face=&quot;Times New Roman&quot;&gt;R Studio&lt;/font&gt;&lt;/h1&gt;" style="rounded=0;whiteSpace=wrap;html=1;fillColor=#bac8d3;strokeColor=#23445d;strokeWidth=2;" vertex="1" parent="1">
          <mxGeometry x="827" y="1880" width="320" height="40" as="geometry" />
        </mxCell>
        <mxCell id="fSPcChuM5635GCeT5FFo-9" value="&lt;h2 style=&quot;font-size: 20px;&quot;&gt;&lt;font face=&quot;Times New Roman&quot; style=&quot;font-weight: normal;&quot; color=&quot;#000000&quot;&gt;&lt;i&gt;Gwas&lt;/i&gt;&lt;/font&gt;&lt;/h2&gt;" style="rounded=0;whiteSpace=wrap;html=1;fillColor=#bac8d3;strokeWidth=2;strokeColor=#23445d;" vertex="1" parent="1">
          <mxGeometry x="827" y="1920" width="320" height="40" as="geometry" />
        </mxCell>
        <mxCell id="XRPch8dCV1v4oPUhMAJq-43" value="&lt;span style=&quot;color: rgba(0, 0, 0, 0); font-family: monospace; font-size: 0px; text-align: start; text-wrap: nowrap;&quot;&gt;%3CmxGraphModel%3E%3Croot%3E%3CmxCell%20id%3D%220%22%2F%3E%3CmxCell%20id%3D%221%22%20parent%3D%220%22%2F%3E%3CmxCell%20id%3D%222%22%20value%3D%22%22%20style%3D%22rounded%3D0%3BwhiteSpace%3Dwrap%3Bhtml%3D1%3BfillStyle%3Dhatch%3BfillColor%3D%23666666%3BstrokeColor%3D%234D4D4D%3B%22%20vertex%3D%221%22%20parent%3D%221%22%3E%3CmxGeometry%20x%3D%22-280%22%20y%3D%22117%22%20width%3D%22310%22%20height%3D%22100%22%20as%3D%22geometry%22%2F%3E%3C%2FmxCell%3E%3C%2Froot%3E%3C%2FmxGraphModel%3E&lt;/span&gt;" style="rounded=0;whiteSpace=wrap;html=1;fillStyle=hatch;fillColor=#666666;strokeColor=#4D4D4D;" parent="1" vertex="1">
          <mxGeometry x="-480" y="425.81" width="310" height="105.88" as="geometry" />
        </mxCell>
        <mxCell id="fSPcChuM5635GCeT5FFo-14" style="edgeStyle=orthogonalEdgeStyle;rounded=0;orthogonalLoop=1;jettySize=auto;html=1;exitX=0.5;exitY=1;exitDx=0;exitDy=0;shape=link;entryX=0.5;entryY=0;entryDx=0;entryDy=0;" edge="1" parent="1" source="fSPcChuM5635GCeT5FFo-12" target="fSPcChuM5635GCeT5FFo-21">
          <mxGeometry relative="1" as="geometry">
            <mxPoint x="771" y="1960" as="targetPoint" />
            <Array as="points">
              <mxPoint x="770" y="1760" />
              <mxPoint x="771" y="2060" />
            </Array>
          </mxGeometry>
        </mxCell>
        <mxCell id="fSPcChuM5635GCeT5FFo-12" value="&lt;font style=&quot;font-size: 23px;&quot; face=&quot;Times New Roman&quot;&gt;&lt;b&gt;VCF&lt;/b&gt;&lt;/font&gt;" style="html=1;whiteSpace=wrap;container=1;recursiveResize=0;collapsible=0;strokeWidth=4;" vertex="1" parent="1">
          <mxGeometry x="690" y="1490" width="160" height="70" as="geometry" />
        </mxCell>
        <mxCell id="fSPcChuM5635GCeT5FFo-13" value="" style="triangle;html=1;whiteSpace=wrap;strokeWidth=3;" vertex="1" parent="fSPcChuM5635GCeT5FFo-12">
          <mxGeometry x="20" y="20" width="20" height="30" as="geometry" />
        </mxCell>
        <mxCell id="fSPcChuM5635GCeT5FFo-21" value="&lt;h1 style=&quot;font-size: 20px;&quot;&gt;&lt;font face=&quot;Times New Roman&quot;&gt;R Studio&lt;/font&gt;&lt;/h1&gt;" style="rounded=0;whiteSpace=wrap;html=1;fillColor=#bac8d3;strokeColor=#23445d;strokeWidth=2;" vertex="1" parent="1">
          <mxGeometry x="610" y="2060" width="320" height="40" as="geometry" />
        </mxCell>
        <mxCell id="fSPcChuM5635GCeT5FFo-22" value="&lt;h2 style=&quot;font-size: 20px;&quot;&gt;&lt;font face=&quot;Times New Roman&quot; style=&quot;font-weight: normal;&quot; color=&quot;#000000&quot;&gt;&lt;i&gt;Arbre PhylogÃ©nÃ©tique&lt;/i&gt;&lt;/font&gt;&lt;/h2&gt;" style="rounded=0;whiteSpace=wrap;html=1;fillColor=#bac8d3;strokeWidth=2;strokeColor=#23445d;" vertex="1" parent="1">
          <mxGeometry x="610" y="2100" width="320" height="40" as="geometry" />
        </mxCell>
      </root>
    </mxGraphModel>
  </diagram>
</mxfile>
